<svg xmlns="http://www.w3.org/2000/svg" width="1110" height="300" viewBox="0 0 1599 432">
  <title>CachePoisoningAttack</title>
  <g>
    <polygon points="297.11 219.41 819.67 219.41 819.67 230.98 842.46 217.83 819.67 204.68 819.67 216.24 297.11 216.24 297.11 219.41" fill="#1d81c4" />
    <polygon points="842.23 249.18 319.9 249.18 319.9 237.61 297.11 250.77 319.9 263.92 319.9 252.35 842.23 252.35 842.23 249.18" fill="#db1d1d" />
    <circle cx="1464.96" cy="131.38" r="43.2" fill="#159c80" />
    <path d="M1465.22,86.15a45,45,0,1,0-.06,90h0a45,45,0,1,0,0-90Zm32.4,17.06a23.18,23.18,0,0,1-6.19,6,32.63,32.63,0,0,1-5.66,3.06,60.32,60.32,0,0,0-7-14.15,59.14,59.14,0,0,0-7.65-9.33,42.56,42.56,0,0,1,24.3,12.14C1496.22,101.65,1496.93,102.42,1497.62,103.21Zm-30.14,70.67-1.21.05V146.37a54.9,54.9,0,0,1,17.42,2.9,58.2,58.2,0,0,1-6.7,13.65A53.12,53.12,0,0,1,1467.48,173.88Zm-20.82-24.63a53.25,53.25,0,0,1,17.42-2.88l0,27.56-1.2-.05A57.79,57.79,0,0,1,1446.66,149.25Zm16.24-60.84,1.21,0v27.57a55.21,55.21,0,0,1-17.42-2.91,58.2,58.2,0,0,1,6.7-13.65A53.43,53.43,0,0,1,1462.9,88.41ZM1483.72,113a54.91,54.91,0,0,1-17.42,2.89V88.36l1.21,0A57.79,57.79,0,0,1,1483.72,113Zm-17.42,5.09a56,56,0,0,0,18.09-2.95,56.59,56.59,0,0,1,2.26,14.88h-20.36Zm-2.2,0V130h-20.36a56.79,56.79,0,0,1,2.28-14.87A56.17,56.17,0,0,0,1464.1,118.13ZM1441.53,130h-19.12a42.44,42.44,0,0,1,8.92-25.07c1.61,2.23,5.35,6.36,12.62,9.41A58.6,58.6,0,0,0,1441.53,130Zm0,2.2a59.09,59.09,0,0,0,2.41,15.68c-7.27,3-11,7.17-12.62,9.39a42.36,42.36,0,0,1-8.9-25.08Zm2.21,0h20.36v11.91a56.28,56.28,0,0,0-18.09,3A56.51,56.51,0,0,1,1443.73,132.24Zm22.55,11.92V132.25h20.36a56.94,56.94,0,0,1-2.28,14.88A55.87,55.87,0,0,0,1466.28,144.16Zm22.57-11.9H1508a42.36,42.36,0,0,1-8.93,25.07c-1.6-2.23-5.34-6.36-12.61-9.41A58.6,58.6,0,0,0,1488.85,132.26Zm0-2.2a58.77,58.77,0,0,0-2.4-15.68c7.27-3,11-7.17,12.62-9.39a42.38,42.38,0,0,1,8.9,25.08Zm-53.91-29.19a42.45,42.45,0,0,1,24.31-12.11,59,59,0,0,0-7.66,9.32,60.41,60.41,0,0,0-7,14.14,33.28,33.28,0,0,1-5.65-3.07,23.16,23.16,0,0,1-6.19-6C1433.48,102.38,1434.2,101.61,1434.94,100.87Zm-2.18,58.21c1.15-1.7,4.56-5.91,11.85-9a60,60,0,0,0,7,14.14,59.14,59.14,0,0,0,7.65,9.33,42.47,42.47,0,0,1-24.3-12.14C1434.16,160.64,1433.45,159.87,1432.76,159.08Zm62.68,2.35a42.57,42.57,0,0,1-24.31,12.11,60,60,0,0,0,7.66-9.32,60.7,60.7,0,0,0,7-14.15,33.28,33.28,0,0,1,5.65,3.07,22.9,22.9,0,0,1,6.18,6C1496.9,159.91,1496.18,160.68,1495.44,161.43Z" fill="#fff" />
    <g>
      <path d="M232,175.42a39.11,39.11,0,1,1,39.11-39.11A39.15,39.15,0,0,1,232,175.42Zm0-76.84a37.73,37.73,0,1,0,37.73,37.73A37.77,37.77,0,0,0,232,98.58Z" fill="#d60000" />
      <circle cx="217.11" cy="125.1" r="3.46" fill="#d60000" />
      <circle cx="246.83" cy="125.1" r="3.46" fill="#d60000" />
    </g>
    <polygon points="297.11 331.27 819.67 331.27 819.67 342.84 842.46 329.68 819.67 316.53 819.67 328.1 297.11 328.1 297.11 331.27" fill="#1d81c4" />
    <polygon points="842.23 359.7 319.9 359.7 319.9 348.13 297.11 361.29 319.9 374.44 319.9 362.88 842.23 362.88 842.23 359.7" fill="#db1d1d" />
    <path d="M202.66,90.45c-8,3.39-6.34,15.75-.85,19.75,2-.7,6.54-4.47,9.4-7C207.7,101.44,199.71,97.86,202.66,90.45Z" fill="#d60000" />
    <path d="M260,90.45c8.06,3.39,6.34,15.75.85,19.75-2-.7-6.54-4.47-9.4-7C255,101.44,263,97.86,260,90.45Z" fill="#d60000" />
    <path d="M246.83,142.81c2.25,2,7.09,4.8,11.69,3.84" fill="none" stroke="#d60000" stroke-miterlimit="10" stroke-width="2" />
    <path d="M253.35,146.55a7.31,7.31,0,0,1-1.52-.16A21.28,21.28,0,0,1,220.94,157a7.32,7.32,0,0,1-1.63,1.41A23.35,23.35,0,0,0,254,146.52C253.79,146.54,253.57,146.55,253.35,146.55Z" fill="#d60000" />
    <polygon points="285.54 117.66 1376.97 117.66 1376.97 129.23 1399.75 116.08 1376.97 102.92 1376.97 114.49 285.54 114.49 285.54 117.66" fill="#db1d1d" />
    <polygon points="1399.75 143.17 308.55 143.17 308.55 131.6 285.76 144.75 308.55 157.91 308.55 146.34 1399.75 146.34 1399.75 143.17" fill="#db1d1d" />
    <circle cx="902.9" cy="234.38" r="43.2" fill="#bfe2d9" />
    <path d="M903.15,189.15a45,45,0,0,0,0,90h0a45,45,0,1,0,0-90Zm32.4,17.06a22.91,22.91,0,0,1-6.18,6,34.44,34.44,0,0,1-5.66,3.06,60.21,60.21,0,0,0-7-14.16,58.5,58.5,0,0,0-7.65-9.32,42.48,42.48,0,0,1,24.3,12.13C934.15,204.65,934.87,205.42,935.55,206.21Zm-30.14,70.68-1.2,0V249.37a54.84,54.84,0,0,1,17.41,2.9,58.31,58.31,0,0,1-6.69,13.66A53.32,53.32,0,0,1,905.41,276.89ZM884.6,252.26A52.91,52.91,0,0,1,902,249.37l0,27.56-1.21-.05A57.75,57.75,0,0,1,884.6,252.26Zm16.24-60.85,1.21,0,0,27.56a54.84,54.84,0,0,1-17.41-2.9,58.3,58.3,0,0,1,6.7-13.66A53.75,53.75,0,0,1,900.84,191.41Zm20.81,24.64a55.06,55.06,0,0,1-17.41,2.88V191.37l1.21,0A57.72,57.72,0,0,1,921.65,216.05Zm-17.41,5.08a56,56,0,0,0,18.09-2.95,56.59,56.59,0,0,1,2.26,14.88H904.23Zm-2.21,0v11.92H881.67A56.87,56.87,0,0,1,884,218.16,55.83,55.83,0,0,0,902,221.13ZM879.46,233l-19.11,0A42.39,42.39,0,0,1,869.27,208c1.6,2.22,5.35,6.35,12.62,9.4A58.66,58.66,0,0,0,879.46,233Zm0,2.2a59,59,0,0,0,2.41,15.67c-7.27,3-11,7.17-12.63,9.39a42.39,42.39,0,0,1-8.89-25.07Zm2.21,0H902v11.92a56,56,0,0,0-18.09,3A56.18,56.18,0,0,1,881.67,235.24Zm22.55,11.93V235.25h20.36a56.87,56.87,0,0,1-2.28,14.88A55.9,55.9,0,0,0,904.22,247.17Zm22.57-11.91,19.12,0A42.47,42.47,0,0,1,937,260.34c-1.6-2.22-5.34-6.35-12.61-9.4A59.08,59.08,0,0,0,926.79,235.26Zm0-2.2a58.63,58.63,0,0,0-2.4-15.67c7.27-3,11-7.17,12.62-9.39a42.33,42.33,0,0,1,8.9,25.07Zm-53.91-29.19a42.51,42.51,0,0,1,24.31-12.11,59.48,59.48,0,0,0-7.66,9.32,60.41,60.41,0,0,0-7,14.14,32.19,32.19,0,0,1-5.65-3.06,23.16,23.16,0,0,1-6.19-6C871.42,205.39,872.13,204.62,872.88,203.87Zm-2.18,58.21c1.15-1.7,4.56-5.9,11.85-9a60.43,60.43,0,0,0,6.94,14.14,58.75,58.75,0,0,0,7.65,9.33,42.42,42.42,0,0,1-24.29-12.13C872.1,263.65,871.38,262.88,870.7,262.08Zm62.67,2.35a42.45,42.45,0,0,1-24.31,12.11,58.37,58.37,0,0,0,7.66-9.32,60.39,60.39,0,0,0,7-14.14,32.54,32.54,0,0,1,5.65,3.06,23.07,23.07,0,0,1,6.18,6C934.84,262.91,934.12,263.68,933.37,264.43Z" fill="#fff" />
    <circle cx="902.9" cy="346.53" r="43.2" fill="#bfe2d9" />
    <path d="M903.15,301.3a45,45,0,0,0,0,90h0a45,45,0,1,0,0-90Zm32.4,17.06a22.92,22.92,0,0,1-6.18,6,33,33,0,0,1-5.66,3.06,60.32,60.32,0,0,0-7-14.15,59.14,59.14,0,0,0-7.65-9.33,42.56,42.56,0,0,1,24.3,12.14C934.15,316.8,934.87,317.57,935.55,318.36ZM905.41,389l-1.2.05V361.52a54.84,54.84,0,0,1,17.41,2.9,58.22,58.22,0,0,1-6.69,13.65A52.71,52.71,0,0,1,905.41,389ZM884.6,364.4A53.44,53.44,0,0,1,902,361.51l0,27.57-1.21-.05A57.81,57.81,0,0,1,884.6,364.4Zm16.24-60.84,1.21-.05,0,27.56a54.84,54.84,0,0,1-17.41-2.9,58.2,58.2,0,0,1,6.7-13.65A53.43,53.43,0,0,1,900.84,303.56Zm20.81,24.63a54.81,54.81,0,0,1-17.41,2.89V303.51l1.21.05A57.72,57.72,0,0,1,921.65,328.19Zm-17.41,5.09a56,56,0,0,0,18.09-2.95,56.59,56.59,0,0,1,2.26,14.88l-20.36,0Zm-2.21,0v11.91H881.67A56.79,56.79,0,0,1,884,330.31,56.1,56.1,0,0,0,902,333.28Zm-22.57,11.9H860.35a42.44,42.44,0,0,1,8.92-25.07c1.6,2.23,5.35,6.36,12.62,9.41A58.59,58.59,0,0,0,879.46,345.18Zm0,2.2a59.09,59.09,0,0,0,2.41,15.68c-7.27,3-11,7.17-12.63,9.39a42.42,42.42,0,0,1-8.89-25.08Zm2.21,0H902v11.91a56,56,0,0,0-18.09,2.95A56.16,56.16,0,0,1,881.67,347.39Zm22.55,11.92V347.4h20.36a56.79,56.79,0,0,1-2.28,14.87A56.17,56.17,0,0,0,904.22,359.31Zm22.57-11.9h19.12A42.5,42.5,0,0,1,937,372.49c-1.6-2.23-5.34-6.36-12.61-9.41A59,59,0,0,0,926.79,347.41Zm0-2.2a58.77,58.77,0,0,0-2.4-15.68c7.27-3,11-7.17,12.62-9.39a42.38,42.38,0,0,1,8.9,25.08ZM872.88,316a42.45,42.45,0,0,1,24.31-12.11,59,59,0,0,0-7.66,9.32,60.41,60.41,0,0,0-7,14.14,32.91,32.91,0,0,1-5.65-3.07,23,23,0,0,1-6.19-6C871.42,317.53,872.13,316.76,872.88,316Zm-2.18,58.21c1.15-1.7,4.56-5.91,11.85-9a60.43,60.43,0,0,0,6.94,14.14,59.7,59.7,0,0,0,7.65,9.33,42.44,42.44,0,0,1-24.29-12.14C872.1,375.79,871.38,375,870.7,374.23Zm62.67,2.35a42.44,42.44,0,0,1-24.31,12.1,58.2,58.2,0,0,0,7.66-9.31,60.68,60.68,0,0,0,7-14.15,33.28,33.28,0,0,1,5.65,3.07,23.07,23.07,0,0,1,6.18,6C934.84,375.06,934.12,375.83,933.37,376.58Z" fill="#fff" />
    <g>
      <line x1="842.45" y1="144.75" x2="842.45" y2="147.75" fill="none" stroke="#d60000" stroke-miterlimit="10" stroke-width="2" />
      <line x1="842.45" y1="153.8" x2="842.45" y2="416.59" fill="none" stroke="#d60000" stroke-miterlimit="10" stroke-width="2" stroke-dasharray="6.04 6.04" />
      <line x1="842.45" y1="419.61" x2="842.45" y2="422.61" fill="none" stroke="#d60000" stroke-miterlimit="10" stroke-width="2" />
    </g>
    <path d="M242.28,233.26a15.82,15.82,0,1,0-14.61,0c-10.4,3.74-18,15.21-18,28.76a35,35,0,0,0,1.35,9.62l.32,1.15H258.6l.33-1.15a35.36,35.36,0,0,0,1.35-9.62C260.28,248.47,252.68,237,242.28,233.26Z" fill="#ffaf10" />
    <path d="M242.28,341.13a15.82,15.82,0,1,0-14.61,0c-10.4,3.73-18,15.2-18,28.76a35,35,0,0,0,1.35,9.62l.32,1.14H258.6l.33-1.14a35.41,35.41,0,0,0,1.35-9.62C260.28,356.33,252.68,344.86,242.28,341.13Z" fill="#60bcd8" />
    <text transform="translate(34.12 58.31)" font-size="48" fill="#4c5054" font-family="Verdana, Verdana">Time</text>
    <text transform="translate(1371.65 56.34)" font-size="48" fill="#4c5054" font-family="Verdana, Verdana">
      <tspan letter-spacing="-0.05em">W</tspan>
      <tspan x="45.12" y="0">ebsite</tspan>
    </text>
    <text transform="translate(769.48 56.34)" font-size="48" fill="#4c5054" font-family="Verdana, Verdana">Cache</text>
    <text transform="translate(180.36 59.87)" font-size="48" fill="#4c5054" font-family="Verdana, Verdana">User</text>
    <polygon points="91.55 78.84 91.55 373.35 79.98 373.35 93.13 396.13 106.29 373.35 94.72 373.35 94.72 78.84 91.55 78.84" fill="#606467" />
  </g>
</svg>