<svg xmlns="http://www.w3.org/2000/svg" width="1110" height="285" viewBox="0 0 1599 410">
  <title>Cache</title>
  <g>
    <circle cx="1464.96" cy="131.83" r="43.2" fill="#159c80" />
    <path d="M1465.22,86.59a45,45,0,1,0-.06,90h0a45,45,0,0,0,0-90Zm32.4,17.07a23.33,23.33,0,0,1-6.19,6,32.63,32.63,0,0,1-5.66,3.06,60.32,60.32,0,0,0-7-14.15,59.14,59.14,0,0,0-7.65-9.33,42.5,42.5,0,0,1,24.3,12.14C1496.22,102.1,1496.93,102.87,1497.62,103.66Zm-30.14,70.67-1.21,0V146.81a55.21,55.21,0,0,1,17.42,2.91,58.2,58.2,0,0,1-6.7,13.65A53.12,53.12,0,0,1,1467.48,174.33Zm-20.82-24.63a53.49,53.49,0,0,1,17.42-2.89l0,27.57-1.2,0A57.79,57.79,0,0,1,1446.66,149.7Zm16.24-60.84,1.21,0v27.56a54.9,54.9,0,0,1-17.42-2.9,58.2,58.2,0,0,1,6.7-13.65A53.12,53.12,0,0,1,1462.9,88.86Zm20.82,24.63a54.88,54.88,0,0,1-17.42,2.88V88.81l1.21,0A57.79,57.79,0,0,1,1483.72,113.49Zm-17.42,5.09a56.28,56.28,0,0,0,18.09-3,56.51,56.51,0,0,1,2.26,14.87h-20.36Zm-2.2,0v11.91h-20.36A56.94,56.94,0,0,1,1446,115.6,55.87,55.87,0,0,0,1464.1,118.58Zm-22.57,11.9h-19.12a42.42,42.42,0,0,1,8.92-25.07c1.61,2.23,5.35,6.36,12.62,9.41A58.6,58.6,0,0,0,1441.53,130.48Zm0,2.2a59.16,59.16,0,0,0,2.41,15.68c-7.27,3-11,7.17-12.62,9.39a42.38,42.38,0,0,1-8.9-25.08Zm2.21,0h20.36v11.92a56,56,0,0,0-18.09,2.95A56.59,56.59,0,0,1,1443.73,132.68Zm22.55,11.93V132.7h20.36a56.79,56.79,0,0,1-2.28,14.87A56.17,56.17,0,0,0,1466.28,144.61Zm22.57-11.9H1508a42.39,42.39,0,0,1-8.93,25.07c-1.6-2.23-5.34-6.36-12.61-9.41A58.6,58.6,0,0,0,1488.85,132.71Zm0-2.2a58.7,58.7,0,0,0-2.4-15.68c7.27-3,11-7.17,12.62-9.39a42.36,42.36,0,0,1,8.9,25.08Zm-53.91-29.2a42.5,42.5,0,0,1,24.31-12.1,59.3,59.3,0,0,0-7.66,9.31,60.7,60.7,0,0,0-7,14.15,33.28,33.28,0,0,1-5.65-3.07,23.16,23.16,0,0,1-6.19-6C1433.48,102.83,1434.2,102.06,1434.94,101.31Zm-2.18,58.22c1.15-1.7,4.56-5.91,11.85-9a60.22,60.22,0,0,0,7,14.14,59.14,59.14,0,0,0,7.65,9.33,42.53,42.53,0,0,1-24.3-12.14C1434.16,161.09,1433.45,160.32,1432.76,159.53Zm62.68,2.34A42.45,42.45,0,0,1,1471.13,174a59,59,0,0,0,7.66-9.32,60.41,60.41,0,0,0,7-14.14,33.28,33.28,0,0,1,5.65,3.07,22.75,22.75,0,0,1,6.18,6C1496.9,160.36,1496.18,161.13,1495.44,161.87Z" fill="#fff" />
    <text transform="translate(34.12 58.18)" font-size="48" fill="#4c5054" font-family="Verdana, Verdana">Time</text>
    <text transform="translate(1371.65 56.21)" font-size="48" fill="#4c5054" font-family="Verdana, Verdana">
      <tspan letter-spacing="-0.05em">W</tspan>
      <tspan x="45.12" y="0">ebsite</tspan>
    </text>
    <polygon points="285.54 216.44 819.34 216.44 819.34 228 842.12 214.85 819.34 201.69 819.34 213.26 285.54 213.26 285.54 216.44" fill="#1d81c4" />
    <circle cx="1464.96" cy="233.15" r="43.2" fill="#159c80" />
    <path d="M1465.22,187.92a45,45,0,1,0-.06,90h0a45,45,0,0,0,0-90Zm32.4,17.06a23,23,0,0,1-6.19,6,32.63,32.63,0,0,1-5.66,3.06,60.32,60.32,0,0,0-7-14.15,58.5,58.5,0,0,0-7.65-9.32,42.48,42.48,0,0,1,24.3,12.13C1496.22,203.42,1496.93,204.19,1497.62,205Zm-30.14,70.67-1.21.05V248.14a54.9,54.9,0,0,1,17.42,2.9,58,58,0,0,1-6.7,13.65A53.12,53.12,0,0,1,1467.48,275.65ZM1446.66,251a53.25,53.25,0,0,1,17.42-2.88l0,27.56-1.2-.05A57.79,57.79,0,0,1,1446.66,251Zm16.24-60.84,1.21-.05V217.7a55.21,55.21,0,0,1-17.42-2.91,58.2,58.2,0,0,1,6.7-13.65A53.75,53.75,0,0,1,1462.9,190.18Zm20.82,24.63a54.91,54.91,0,0,1-17.42,2.89V190.14l1.21,0A57.87,57.87,0,0,1,1483.72,214.81Zm-17.42,5.09a56,56,0,0,0,18.09-3,56.59,56.59,0,0,1,2.26,14.88h-20.36Zm-2.2,0v11.92l-20.36,0a56.86,56.86,0,0,1,2.28-14.87A55.9,55.9,0,0,0,1464.1,219.9Zm-22.57,11.9h-19.12a42.39,42.39,0,0,1,8.92-25.06c1.61,2.22,5.35,6.35,12.62,9.4A58.66,58.66,0,0,0,1441.53,231.8Zm0,2.21a59.08,59.08,0,0,0,2.41,15.67c-7.27,3-11,7.17-12.62,9.39a42.36,42.36,0,0,1-8.9-25.07Zm2.21,0h20.36v11.91a56,56,0,0,0-18.09,3A56.65,56.65,0,0,1,1443.73,234Zm22.55,11.93V234h20.36a56.87,56.87,0,0,1-2.28,14.88A55.9,55.9,0,0,0,1466.28,245.94ZM1488.85,234H1508a42.34,42.34,0,0,1-8.93,25.07c-1.6-2.22-5.34-6.36-12.61-9.4A58.74,58.74,0,0,0,1488.85,234Zm0-2.2a58.77,58.77,0,0,0-2.4-15.68c7.27-3,11-7.16,12.62-9.39a42.38,42.38,0,0,1,8.9,25.08Zm-53.91-29.19a42.51,42.51,0,0,1,24.31-12.11,59,59,0,0,0-7.66,9.32,60.41,60.41,0,0,0-7,14.14,31.94,31.94,0,0,1-5.65-3.07,23.33,23.33,0,0,1-6.19-6C1433.48,204.16,1434.2,203.39,1434.94,202.64Zm-2.18,58.21c1.15-1.7,4.56-5.9,11.85-9a60,60,0,0,0,7,14.14,59.14,59.14,0,0,0,7.65,9.33,42.41,42.41,0,0,1-24.3-12.14C1434.16,262.42,1433.45,261.65,1432.76,260.85Zm62.68,2.35a42.51,42.51,0,0,1-24.31,12.11,59.48,59.48,0,0,0,7.66-9.32,60.6,60.6,0,0,0,7-14.14,32.54,32.54,0,0,1,5.65,3.06,22.9,22.9,0,0,1,6.18,6C1496.9,261.68,1496.18,262.45,1495.44,263.2Z" fill="#fff" />
    <polygon points="842.23 241.94 308.43 241.94 308.43 230.37 285.65 243.53 308.43 256.68 308.43 245.11 842.23 245.11 842.23 241.94" fill="#1d81c4" />
    <polygon points="285.54 327.94 819.34 327.94 819.34 339.51 842.12 326.36 819.34 313.2 819.34 324.77 285.54 324.77 285.54 327.94" fill="#1d81c4" />
    <circle cx="1464.96" cy="335.66" r="43.2" fill="#159c80" />
    <path d="M1465.22,290.43a45,45,0,1,0-.06,90h0a45,45,0,1,0,0-90Zm32.4,17.06a23.18,23.18,0,0,1-6.19,6,32.63,32.63,0,0,1-5.66,3.06,60.32,60.32,0,0,0-7-14.15,59.14,59.14,0,0,0-7.65-9.33,42.56,42.56,0,0,1,24.3,12.14C1496.22,305.93,1496.93,306.7,1497.62,307.49Zm-30.14,70.67-1.21,0V350.65a54.9,54.9,0,0,1,17.42,2.9,58.2,58.2,0,0,1-6.7,13.65A53.12,53.12,0,0,1,1467.48,378.16Zm-20.82-24.63a53.49,53.49,0,0,1,17.42-2.89l0,27.57-1.2,0A57.79,57.79,0,0,1,1446.66,353.53Zm16.24-60.84,1.21-.05V320.2a54.9,54.9,0,0,1-17.42-2.9,58.2,58.2,0,0,1,6.7-13.65A53.43,53.43,0,0,1,1462.9,292.69Zm20.82,24.63a54.91,54.91,0,0,1-17.42,2.89V292.64l1.21.05A57.79,57.79,0,0,1,1483.72,317.32Zm-17.42,5.09a56,56,0,0,0,18.09-3,56.59,56.59,0,0,1,2.26,14.88l-20.36,0Zm-2.2,0v11.91h-20.36a56.79,56.79,0,0,1,2.28-14.87A56.17,56.17,0,0,0,1464.1,322.41Zm-22.57,11.9h-19.12a42.44,42.44,0,0,1,8.92-25.07c1.61,2.23,5.35,6.36,12.62,9.41A58.6,58.6,0,0,0,1441.53,334.31Zm0,2.2a59.09,59.09,0,0,0,2.41,15.68c-7.27,3-11,7.17-12.62,9.39a42.36,42.36,0,0,1-8.9-25.08Zm2.21,0h20.36v11.91a56,56,0,0,0-18.09,2.95A56.58,56.58,0,0,1,1443.73,336.52Zm22.55,11.92V336.53h20.36a56.79,56.79,0,0,1-2.28,14.87A56.17,56.17,0,0,0,1466.28,348.44Zm22.57-11.9H1508a42.36,42.36,0,0,1-8.93,25.07c-1.6-2.23-5.34-6.36-12.61-9.41A58.6,58.6,0,0,0,1488.85,336.54Zm0-2.2a58.77,58.77,0,0,0-2.4-15.68c7.27-3,11-7.17,12.62-9.39a42.38,42.38,0,0,1,8.9,25.08Zm-53.91-29.19A42.45,42.45,0,0,1,1459.25,293a59,59,0,0,0-7.66,9.32,60.41,60.41,0,0,0-7,14.14,33.28,33.28,0,0,1-5.65-3.07,23.16,23.16,0,0,1-6.19-6C1433.48,306.66,1434.2,305.89,1434.94,305.15Zm-2.18,58.21c1.15-1.7,4.56-5.91,11.85-9a60,60,0,0,0,7,14.14,59.14,59.14,0,0,0,7.65,9.33,42.47,42.47,0,0,1-24.3-12.14C1434.16,364.92,1433.45,364.15,1432.76,363.36Zm62.68,2.35a42.5,42.5,0,0,1-24.31,12.1,59.3,59.3,0,0,0,7.66-9.31,60.7,60.7,0,0,0,7-14.15,33.28,33.28,0,0,1,5.65,3.07,22.9,22.9,0,0,1,6.18,6C1496.9,364.19,1496.18,365,1495.44,365.71Z" fill="#fff" />
    <polygon points="842.23 353.45 308.43 353.45 308.43 341.88 285.65 355.03 308.43 368.19 308.43 356.62 842.23 356.62 842.23 353.45" fill="#1d81c4" />
    <g>
      <line x1="842.45" y1="77.89" x2="842.45" y2="80.89" fill="none" stroke="#4c5054" stroke-miterlimit="10" stroke-width="2" />
      <line x1="842.45" y1="86.78" x2="842.45" y2="390.06" fill="none" stroke="#4c5054" stroke-miterlimit="10" stroke-width="2" stroke-dasharray="5.89 5.89" />
      <line x1="842.45" y1="393" x2="842.45" y2="396" fill="none" stroke="#4c5054" stroke-miterlimit="10" stroke-width="2" />
    </g>
    <text transform="translate(769.48 56.21)" font-size="48" fill="#4c5054" font-family="Verdana, Verdana">Cache</text>
    <polygon points="285.54 115.11 1376.97 115.11 1376.97 126.68 1399.75 113.53 1376.97 100.37 1376.97 111.94 285.54 111.94 285.54 115.11" fill="#1d81c4" />
    <polygon points="1399.98 140.62 308.55 140.62 308.55 129.05 285.76 142.2 308.55 155.36 308.55 143.79 1399.98 143.79 1399.98 140.62" fill="#1d81c4" />
    <circle cx="902.9" cy="230.17" r="43.2" fill="#bfe2d9" />
    <path d="M903.15,184.94a45,45,0,0,0,0,90h0a45,45,0,1,0,0-90ZM935.55,202a22.77,22.77,0,0,1-6.18,6,33,33,0,0,1-5.66,3.06,60.32,60.32,0,0,0-7-14.15,58.5,58.5,0,0,0-7.65-9.32,42.48,42.48,0,0,1,24.3,12.13C934.15,200.44,934.87,201.21,935.55,202Zm-30.14,70.67-1.2.05V245.16a54.84,54.84,0,0,1,17.41,2.9,58.22,58.22,0,0,1-6.69,13.65A52.71,52.71,0,0,1,905.41,272.67ZM884.6,248A53.2,53.2,0,0,1,902,245.16l0,27.56-1.21-.05A57.81,57.81,0,0,1,884.6,248Zm16.24-60.84,1.21,0,0,27.57a55.15,55.15,0,0,1-17.41-2.91,58.2,58.2,0,0,1,6.7-13.65A53.75,53.75,0,0,1,900.84,187.2Zm20.81,24.63a54.81,54.81,0,0,1-17.41,2.89V187.16l1.21,0A57.72,57.72,0,0,1,921.65,211.83Zm-17.41,5.09A56,56,0,0,0,922.33,214a56.59,56.59,0,0,1,2.26,14.88H904.23Zm-2.21,0v11.92l-20.36,0A56.79,56.79,0,0,1,884,214,56.1,56.1,0,0,0,902,216.92Zm-22.57,11.9H860.35a42.39,42.39,0,0,1,8.92-25.06c1.6,2.22,5.35,6.35,12.62,9.4A58.59,58.59,0,0,0,879.46,228.82Zm0,2.21a59.08,59.08,0,0,0,2.41,15.67c-7.27,3-11,7.17-12.63,9.39A42.41,42.41,0,0,1,860.35,231Zm2.21,0H902V243a55.92,55.92,0,0,0-18.09,3A56.24,56.24,0,0,1,881.67,231ZM904.22,243V231h20.36a56.94,56.94,0,0,1-2.28,14.88A56.14,56.14,0,0,0,904.22,243Zm22.57-11.9h19.12A42.47,42.47,0,0,1,937,256.13c-1.6-2.22-5.34-6.36-12.61-9.4A59.15,59.15,0,0,0,926.79,231.05Zm0-2.2a58.77,58.77,0,0,0-2.4-15.68c7.27-3,11-7.16,12.62-9.39a42.38,42.38,0,0,1,8.9,25.08Zm-53.91-29.19a42.45,42.45,0,0,1,24.31-12.11,59,59,0,0,0-7.66,9.32,60.41,60.41,0,0,0-7,14.14,32.24,32.24,0,0,1-5.65-3.07,23,23,0,0,1-6.19-6C871.42,201.17,872.13,200.4,872.88,199.66Zm-2.18,58.21c1.15-1.7,4.56-5.91,11.85-9A60.43,60.43,0,0,0,889.49,263a59.7,59.7,0,0,0,7.65,9.33,42.44,42.44,0,0,1-24.29-12.14C872.1,259.44,871.38,258.66,870.7,257.87Zm62.67,2.35a42.45,42.45,0,0,1-24.31,12.11,58.37,58.37,0,0,0,7.66-9.32,60.68,60.68,0,0,0,7-14.15,33.28,33.28,0,0,1,5.65,3.07,23.07,23.07,0,0,1,6.18,6C934.84,258.7,934.12,259.47,933.37,260.22Z" fill="#fff" />
    <circle cx="902.9" cy="341.29" r="43.2" fill="#bfe2d9" />
    <path d="M903.15,296.05a45,45,0,1,0,0,90h0a45,45,0,1,0,0-90Zm32.4,17.07a23.08,23.08,0,0,1-6.18,6,33,33,0,0,1-5.66,3.06,60.32,60.32,0,0,0-7-14.15,59.14,59.14,0,0,0-7.65-9.33,42.5,42.5,0,0,1,24.3,12.14C934.15,311.56,934.87,312.33,935.55,313.12Zm-30.14,70.67-1.2,0V356.27a55.15,55.15,0,0,1,17.41,2.91,58.22,58.22,0,0,1-6.69,13.65A52.71,52.71,0,0,1,905.41,383.79ZM884.6,359.16A53.44,53.44,0,0,1,902,356.27l0,27.57-1.21,0A57.81,57.81,0,0,1,884.6,359.16Zm16.24-60.84,1.21-.05,0,27.56a54.84,54.84,0,0,1-17.41-2.9,58.2,58.2,0,0,1,6.7-13.65A53.12,53.12,0,0,1,900.84,298.32ZM921.65,323a54.78,54.78,0,0,1-17.41,2.88V298.27l1.21.05A57.72,57.72,0,0,1,921.65,323ZM904.24,328a56.28,56.28,0,0,0,18.09-3A56.51,56.51,0,0,1,924.59,340H904.23ZM902,328V340H881.67A56.94,56.94,0,0,1,884,325.06,55.8,55.8,0,0,0,902,328Zm-22.57,11.9H860.35a42.42,42.42,0,0,1,8.92-25.07c1.6,2.23,5.35,6.36,12.62,9.41A58.59,58.59,0,0,0,879.46,339.94Zm0,2.2a59.16,59.16,0,0,0,2.41,15.68c-7.27,3-11,7.17-12.63,9.39a42.44,42.44,0,0,1-8.89-25.08Zm2.21,0H902v11.92A56,56,0,0,0,883.93,357,56.18,56.18,0,0,1,881.67,342.14Zm22.55,11.93V342.16h20.36A56.79,56.79,0,0,1,922.31,357,56.17,56.17,0,0,0,904.22,354.07Zm22.57-11.9h19.12A42.52,42.52,0,0,1,937,367.25c-1.6-2.23-5.34-6.36-12.61-9.41A59,59,0,0,0,926.79,342.17Zm0-2.2a58.7,58.7,0,0,0-2.4-15.68c7.27-3,11-7.17,12.62-9.39a42.36,42.36,0,0,1,8.9,25.08Zm-53.91-29.2a42.5,42.5,0,0,1,24.31-12.1,59.3,59.3,0,0,0-7.66,9.31,60.7,60.7,0,0,0-7,14.15,32.91,32.91,0,0,1-5.65-3.07,23,23,0,0,1-6.19-6C871.42,312.29,872.13,311.52,872.88,310.77ZM870.7,369c1.15-1.7,4.56-5.91,11.85-9a60.63,60.63,0,0,0,6.94,14.14,59.7,59.7,0,0,0,7.65,9.33,42.5,42.5,0,0,1-24.29-12.14C872.1,370.55,871.38,369.78,870.7,369Zm62.67,2.34a42.39,42.39,0,0,1-24.31,12.11,57.91,57.91,0,0,0,7.66-9.32,60.39,60.39,0,0,0,7-14.14,33.28,33.28,0,0,1,5.65,3.07,22.91,22.91,0,0,1,6.18,6C934.84,369.82,934.12,370.59,933.37,371.33Z" fill="#fff" />
    <path d="M242.28,118.18a15.82,15.82,0,1,0-14.61,0c-10.4,3.73-18,15.21-18,28.76a35,35,0,0,0,1.35,9.62l.32,1.15H258.6l.33-1.15a35.36,35.36,0,0,0,1.35-9.62C260.28,133.39,252.68,121.91,242.28,118.18Z" fill="#ffaf10" />
    <text transform="translate(180.36 59.74)" font-size="48" fill="#4c5054" font-family="Verdana, Verdana">User</text>
    <polygon points="91.55 78.71 91.55 373.21 79.98 373.21 93.13 396 106.29 373.21 94.72 373.21 94.72 78.71 91.55 78.71" fill="#606467" />
    <path d="M242.28,223.94a15.82,15.82,0,1,0-14.61,0c-10.4,3.73-18,15.2-18,28.75a34.92,34.92,0,0,0,1.35,9.62l.32,1.15H258.6l.33-1.15a35.3,35.3,0,0,0,1.35-9.62C260.28,239.14,252.68,227.67,242.28,223.94Z" fill="#60bcd8" />
    <path d="M242.28,330.77a15.82,15.82,0,1,0-14.61,0c-10.4,3.74-18,15.21-18,28.76a35,35,0,0,0,1.35,9.62l.32,1.15H258.6l.33-1.15a35.36,35.36,0,0,0,1.35-9.62C260.28,346,252.68,334.51,242.28,330.77Z" fill="#ae75c3" />
  </g>
</svg>