<svg xmlns="http://www.w3.org/2000/svg" width="1110" height="299" viewBox="0 0 1110 299">
  <title>Webcache_Poisoning</title>
  <rect x="852.31" y="89.82" width="175.01" height="175.01" fill="#ebf0f2" stroke="#4d5155" stroke-miterlimit="10" />
  <rect x="523.53" y="147.82" width="29.04" height="29.04" fill="#139c80" />
  <rect x="564.67" y="147.82" width="29.04" height="29.04" fill="#139c80" />
  <rect x="605.81" y="147.82" width="29.04" height="29.04" fill="#139c80" />
  <rect x="646.94" y="147.82" width="29.04" height="29.04" fill="#125f82" />
  <rect x="688.08" y="147.82" width="29.04" height="29.04" fill="#125f82" />
  <rect x="729.21" y="147.82" width="29.04" height="29.04" fill="#125f82" />
  <line x1="479.6" y1="177.31" x2="841.19" y2="177.31" fill="none" stroke="#999" stroke-miterlimit="10" stroke-width="2" />
  <text transform="translate(329.76 58.43)" font-size="33.32" fill="#4c5054" font-family="Verdana" style="isolation:isolate">Fron<tspan x="74.68" y="0" letter-spacing="-0.02em">t</tspan><tspan x="87.16" y="0">-end</tspan></text>
  <text transform="translate(859.37 58.43)" font-size="33.32" fill="#4c5054" font-family="Verdana" style="isolation:isolate">Bac<tspan x="60.21" y="0" letter-spacing="-0.05em">k</tspan><tspan x="78.31" y="0">-end</tspan></text>
  <path d="M411.81,119.86a57.45,57.45,0,1,0-.08,114.9h0a57.45,57.45,0,0,0,0-114.9Zm41.36,21.78a29.68,29.68,0,0,1-7.9,7.66,41,41,0,0,1-7.23,3.91,77.19,77.19,0,0,0-8.93-18.07,75.9,75.9,0,0,0-9.77-11.91,54.3,54.3,0,0,1,31,15.5A32,32,0,0,1,453.17,141.64Zm-38.48,90.22-1.54.07V196.74a70.42,70.42,0,0,1,22.24,3.7,74.09,74.09,0,0,1-8.56,17.43A67.27,67.27,0,0,1,414.69,231.86Zm-26.58-31.44a67.9,67.9,0,0,1,22.24-3.68v35.19l-1.53-.07A73.71,73.71,0,0,1,388.11,200.42Zm20.74-77.68h1.54v35.2a70.43,70.43,0,0,1-22.24-3.71,74.44,74.44,0,0,1,8.55-17.43A68.25,68.25,0,0,1,408.85,122.74Zm26.58,31.4a70.13,70.13,0,0,1-22.24,3.69V122.68h1.54A73.81,73.81,0,0,1,435.43,154.14Zm-22.24,6.5a71.4,71.4,0,0,0,23.09-3.77,72,72,0,0,1,2.89,19h-26Zm-2.81,0v15.2h-26a73,73,0,0,1,2.91-19,72,72,0,0,0,23.09,3.83Zm-28.82,15.2H357.15a54.18,54.18,0,0,1,11.39-32c2.06,2.84,6.83,8.12,16.11,12A74.81,74.81,0,0,0,381.56,175.84Zm0,2.81a75.42,75.42,0,0,0,3.08,20c-9.28,3.83-14,9.15-16.11,12a54.09,54.09,0,0,1-11.37-32Zm2.82,0h26v15.21a71.74,71.74,0,0,0-23.1,3.83,72.27,72.27,0,0,1-2.91-19Zm28.79,15.22V178.72h26a73.11,73.11,0,0,1-2.91,19,71.43,71.43,0,0,0-23.1-3.79ZM442,178.68h24.44a54.12,54.12,0,0,1-11.41,32c-2-2.84-6.81-8.12-16.09-12A75.27,75.27,0,0,0,442,178.73Zm0-2.81a75,75,0,0,0-3.06-20c9.28-3.83,14-9.16,16.11-12a54.15,54.15,0,0,1,11.36,32ZM373.16,138.6a54.24,54.24,0,0,1,31-15.46,74.88,74.88,0,0,0-9.78,11.9,77.08,77.08,0,0,0-8.94,18.05,42.27,42.27,0,0,1-7.21-3.92,29.38,29.38,0,0,1-7.9-7.66c.91-.93,1.83-1.91,2.78-2.86Zm-2.78,74.32c1.47-2.17,5.82-7.55,15.13-11.49a78.27,78.27,0,0,0,18.7,30,54.15,54.15,0,0,1-31-15.5,32.21,32.21,0,0,1-2.82-2.92Zm80,3a54.39,54.39,0,0,1-31,15.46,77.9,77.9,0,0,0,18.71-30,43,43,0,0,1,7.22,3.91,29.53,29.53,0,0,1,7.89,7.67c-.94,1-1.86,2-2.8,3Z" fill="#999" />
  <polyline points="127.21 122.09 273.89 122.09 273.89 157.54 341.54 157.54" fill="none" stroke="#125f82" stroke-miterlimit="10" stroke-width="2" />
  <polyline points="127.21 232.12 273.89 232.12 273.89 196.67 341.54 196.67" fill="none" stroke="#139c80" stroke-miterlimit="10" stroke-width="2" />
  <rect x="173.23" y="197.6" width="53.91" height="53.91" fill="#139c80" />
  <polyline points="879.74 165.87 903.81 165.87 903.81 142.4 928.7 142.4" fill="none" stroke="#125f82" stroke-miterlimit="10" stroke-width="2" />
  <polyline points="879.74 190.19 903.81 190.19 903.81 213.66 928.7 213.66" fill="none" stroke="#139c80" stroke-miterlimit="10" stroke-width="2" />
  <rect x="943.99" y="185.05" width="55.9" height="55.9" fill="#139c80" />
  <rect x="943.99" y="111.87" width="55.9" height="55.9" fill="#125f82" />
  <rect x="173.07" y="101.53" width="53.94" height="53.94" fill="#125f82" />
  <polygon points="330.51 188.78 343.9 197.42 330.68 206.71 330.51 188.78" fill="#139c80" />
  <polygon points="331.61 148.97 344.9 157.77 331.57 166.91 331.61 148.97" fill="#125f82" />
  <polygon points="921.01 205.37 934.39 214.01 921.17 223.3 921.01 205.37" fill="#139c80" />
  <polygon points="921.05 133.43 934.33 142.23 921.01 151.37 921.05 133.43" fill="#125f82" />
  <polygon points="831.58 168.34 844.86 177.14 831.53 186.28 831.58 168.34" fill="#999" />
  <circle cx="85.2" cy="106.78" r="15.93" fill="none" stroke="#125f82" stroke-miterlimit="10" stroke-width="2" />
  <path d="M78.81,122.71H93.11A18.25,18.25,0,0,1,111.36,141v9a0,0,0,0,1,0,0H60.56a0,0,0,0,1,0,0v-9a18.25,18.25,0,0,1,18.25-18.25Z" fill="none" stroke="#125f82" stroke-miterlimit="10" stroke-width="2" />
  <circle cx="85.2" cy="210.92" r="15.93" fill="none" stroke="#139c80" stroke-miterlimit="10" stroke-width="2" />
  <path d="M78.81,226.85H93.11a18.25,18.25,0,0,1,18.25,18.25v9a0,0,0,0,1,0,0H60.56a0,0,0,0,1,0,0v-9A18.25,18.25,0,0,1,78.81,226.85Z" fill="none" stroke="#139c80" stroke-miterlimit="10" stroke-width="2" />
</svg>