<svg xmlns="http://www.w3.org/2000/svg" width="1110" height="299" viewBox="0 0 1110 299">
  <title>Webcache_Poisoning</title>
  <rect x="852.31" y="89.82" width="175.01" height="175.01" fill="#ebf0f2" stroke="#4d5155" stroke-miterlimit="10" />
  <rect x="523.53" y="148.64" width="29.04" height="29.04" fill="#139c80" />
  <rect x="564.67" y="148.64" width="29.04" height="29.04" fill="#139c80" />
  <rect x="605.81" y="148.64" width="29.04" height="29.04" fill="#139c80" />
  <rect x="646.94" y="148.64" width="29.04" height="29.04" fill="#ec663b" />
  <rect x="688.08" y="148.64" width="29.04" height="29.04" fill="#125f82" />
  <rect x="729.21" y="148.64" width="29.04" height="29.04" fill="#125f82" />
  <line x1="479.6" y1="177.31" x2="841.19" y2="177.31" fill="none" stroke="#999" stroke-miterlimit="10" stroke-width="2" />
  <text transform="translate(329.76 58.43)" font-size="33.32" fill="#4c5054" font-family="Verdana" style="isolation:isolate">Fron<tspan x="74.68" y="0" letter-spacing="-0.02em">t</tspan><tspan x="87.16" y="0">-end</tspan></text>
  <text transform="translate(859.37 58.43)" font-size="33.32" fill="#4c5054" font-family="Verdana" style="isolation:isolate">Bac<tspan x="60.21" y="0" letter-spacing="-0.05em">k</tspan><tspan x="78.31" y="0">-end</tspan></text>
  <polyline points="127.21 122.09 273.89 122.09 273.89 157.54 341.54 157.54" fill="none" stroke="#125f82" stroke-miterlimit="10" stroke-width="2" />
  <polyline points="127.21 232.12 273.89 232.12 273.89 196.67 341.54 196.67" fill="none" stroke="#139c80" stroke-miterlimit="10" stroke-width="2" />
  <rect x="173.23" y="197.6" width="53.91" height="53.91" fill="#139c80" />
  <polyline points="879.74 165.87 903.81 165.87 903.81 142.4 928.7 142.4" fill="none" stroke="#125f82" stroke-miterlimit="10" stroke-width="2" />
  <polyline points="879.74 190.19 903.81 190.19 903.81 213.66 928.7 213.66" fill="none" stroke="#139c80" stroke-miterlimit="10" stroke-width="2" />
  <rect x="943.99" y="185.05" width="55.9" height="55.9" fill="#139c80" />
  <rect x="943.99" y="185.05" width="55.9" height="16.06" fill="#ec663b" />
  <rect x="943.99" y="113.7" width="55.9" height="39.36" fill="#125f82" />
  <rect x="173.07" y="101.53" width="53.94" height="53.94" fill="#125f82" />
  <rect x="173.07" y="137.19" width="53.94" height="18.28" fill="#ec663b" />
  <polygon points="330.51 188.27 343.9 196.91 330.68 206.2 330.51 188.27" fill="#139c80" />
  <polygon points="331.61 148.46 344.9 157.25 331.57 166.4 331.61 148.46" fill="#125f82" />
  <polygon points="831.58 167.82 844.86 176.62 831.53 185.77 831.58 167.82" fill="#999" />
  <path d="M411.81,119.86a57.45,57.45,0,1,0-.08,114.9h0a57.45,57.45,0,0,0,0-114.9Zm41.36,21.78a29.68,29.68,0,0,1-7.9,7.66,41,41,0,0,1-7.23,3.91,77.19,77.19,0,0,0-8.93-18.07,75.9,75.9,0,0,0-9.77-11.91,54.3,54.3,0,0,1,31,15.5A32,32,0,0,1,453.17,141.64Zm-38.48,90.22-1.54.07V196.74a70.42,70.42,0,0,1,22.24,3.7,74.09,74.09,0,0,1-8.56,17.43A67.27,67.27,0,0,1,414.69,231.86Zm-26.58-31.44a67.9,67.9,0,0,1,22.24-3.68v35.19l-1.53-.07A73.71,73.71,0,0,1,388.11,200.42Zm20.74-77.68h1.54v35.2a70.43,70.43,0,0,1-22.24-3.71,74.44,74.44,0,0,1,8.55-17.43A68.25,68.25,0,0,1,408.85,122.74Zm26.58,31.4a70.13,70.13,0,0,1-22.24,3.69V122.68h1.54A73.81,73.81,0,0,1,435.43,154.14Zm-22.24,6.5a71.4,71.4,0,0,0,23.09-3.77,72,72,0,0,1,2.89,19h-26Zm-2.81,0v15.2h-26a73,73,0,0,1,2.91-19,72,72,0,0,0,23.09,3.83Zm-28.82,15.2H357.15a54.18,54.18,0,0,1,11.39-32c2.06,2.84,6.83,8.12,16.11,12A74.81,74.81,0,0,0,381.56,175.84Zm0,2.81a75.42,75.42,0,0,0,3.08,20c-9.28,3.83-14,9.15-16.11,12a54.09,54.09,0,0,1-11.37-32Zm2.82,0h26v15.21a71.74,71.74,0,0,0-23.1,3.83,72.27,72.27,0,0,1-2.91-19Zm28.79,15.22V178.72h26a73.11,73.11,0,0,1-2.91,19,71.43,71.43,0,0,0-23.1-3.79ZM442,178.68h24.44a54.12,54.12,0,0,1-11.41,32c-2-2.84-6.81-8.12-16.09-12A75.27,75.27,0,0,0,442,178.73Zm0-2.81a75,75,0,0,0-3.06-20c9.28-3.83,14-9.16,16.11-12a54.15,54.15,0,0,1,11.36,32ZM373.16,138.6a54.24,54.24,0,0,1,31-15.46,74.88,74.88,0,0,0-9.78,11.9,77.08,77.08,0,0,0-8.94,18.05,42.27,42.27,0,0,1-7.21-3.92,29.38,29.38,0,0,1-7.9-7.66c.91-.93,1.83-1.91,2.78-2.86Zm-2.78,74.32c1.47-2.17,5.82-7.55,15.13-11.49a78.27,78.27,0,0,0,18.7,30,54.15,54.15,0,0,1-31-15.5,32.21,32.21,0,0,1-2.82-2.92Zm80,3a54.39,54.39,0,0,1-31,15.46,77.9,77.9,0,0,0,18.71-30,43,43,0,0,1,7.22,3.91,29.53,29.53,0,0,1,7.89,7.67c-.94,1-1.86,2-2.8,3Z" fill="#999" />
  <polygon points="921.01 205.37 934.39 214.01 921.17 223.3 921.01 205.37" fill="#139c80" />
  <polygon points="921.05 133.43 934.33 142.23 921.01 151.37 921.05 133.43" fill="#125f82" />
  <circle cx="85.2" cy="210.92" r="15.93" fill="none" stroke="#139c80" stroke-miterlimit="10" stroke-width="2" />
  <path d="M78.81,226.85H93.11a18.25,18.25,0,0,1,18.25,18.25v9a0,0,0,0,1,0,0H60.56a0,0,0,0,1,0,0v-9A18.25,18.25,0,0,1,78.81,226.85Z" fill="none" stroke="#139c80" stroke-miterlimit="10" stroke-width="2" />
  <path d="M72.4,85.39c0,.39-.54.3-1.36.22a3.2,3.2,0,0,0-3.5,3.18c0,5.29,4.94,6.59,4.94,7.44V97" fill="none" stroke="#4d5155" stroke-miterlimit="10" />
  <path d="M99.18,97v-.72c0-.85,5-2.15,4.94-7.44a3.21,3.21,0,0,0-3.5-3.18c-.82.08-1.41.17-1.36-.22" fill="none" stroke="#4d5155" stroke-miterlimit="10" />
  <path d="M77.92,106.7a31.7,31.7,0,0,1,0,6.46c-.37,3.59-5.31,4-12.36,5.44-4.24.57-13,18.17-13,25,0,3.22,9.25,19.94,9.25,19.94" fill="none" stroke="#4d5155" stroke-miterlimit="10" />
  <path d="M94,106.7a31.7,31.7,0,0,0,0,6.46c.37,3.59,5.31,4,12.36,5.44,8.35,3.23,12,21.41,13.62,27.26-.9,4.95-9.49,17.67-9.49,17.67" fill="none" stroke="#4d5155" stroke-miterlimit="10" />
  <path d="M85.83,117h.58c3.71-.07,5.8-.94,7.91-2.65,1.15,1.29,3.39,3,4.42,2.66s-5.51,4.82-12.93,4.32-10.38-2.56-11.49-4.68c1.43-.6,2.91-1.12,3.24-2.3C79.68,116.62,83.11,117.16,85.83,117Z" fill="#4d5155" stroke="#4d5155" stroke-miterlimit="10" stroke-width="0.99" />
  <polygon points="104.54 131.56 69.11 131.56 69.02 126.36 104.54 125.85 104.54 131.56" fill="#4d5155" />
  <polygon points="105.97 138.01 67.39 138.01 67.29 136.24 105.41 136.24 105.97 138.01" fill="#4d5155" />
  <path d="M72.05,85.12c2.42-1.07,9.32,0,13.76,2.62,2.76-2.85,11.3-3.92,14.24-2.75a1,1,0,0,0,.46.82c-1.76.69-4.73,5-7.33,5.59-1.17.29-6.75-1-7.91-.77a28.9,28.9,0,0,1-6.55.72c-3.2.1-6.66-5.3-6.66-5.3Z" fill="#4d5155" stroke="#4d5155" stroke-miterlimit="10" stroke-width="0.99" />
  <polyline points="112.8 159.93 116.98 159.93 110.48 173.65 62.14 173.65 54.69 159.93 59.33 159.93" fill="none" stroke="#4d5155" stroke-miterlimit="10" stroke-width="0.99" />
  <polygon points="57.88 137.91 114.45 137.91 108.92 173.65 63.4 173.65 57.88 137.91" fill="#fff" stroke="#4d5155" stroke-miterlimit="10" />
  <polyline points="54.69 159.93 62.14 175.74 110.48 175.74 116.98 159.93" fill="none" stroke="#4d5155" stroke-miterlimit="10" />
  <line x1="83.58" y1="102.7" x2="88.09" y2="102.7" fill="none" stroke="#4d5155" stroke-miterlimit="10" />
  <path d="M60.49,124.52c1.4,2.77,7.52,7,8.62,7s1.44-4.82,1.44-4.82c-3.68-1.87-6.35-4-7.25-6.49Z" fill="#4d5155" />
  <path d="M57.5,128.71c2.29,2.93,11.93,8.3,13,8A2.41,2.41,0,0,1,68.69,138c.17.18-8.53-.46-8.53-.46s-5.43-2.67-4.94-3.88C55.79,132.28,57.71,128.69,57.5,128.71Z" fill="#4d5155" />
  <path d="M53.1,140c.7.58,4.74,2.14,5.41,2,0,.4.54,4.77.54,4.77s-5.55.23-6.34-.92C52.83,144.47,53.1,140,53.1,140Z" fill="#4d5155" />
  <path d="M55.82,152c2.67.05,4.12-.69,4-1.13s.58,3.74.58,3.74,1.78,2.07-2.14,2.36C57,155.66,55.82,152,55.82,152Z" fill="#4d5155" />
  <path d="M112.21,124.52c-1.41,2.77-6.57,7-7.67,7s-2.89-4.37-2.89-4.37a12.76,12.76,0,0,0,7.73-6.94Z" fill="#4d5155" />
  <path d="M114.82,129.31c-2.29,2.92-9.71,7.5-10.82,7.21.25.78-.41,1.48,0,1.48-.16.18,8.53-.46,8.53-.46s4.57-2.2,4.08-3.4C116,132.75,114.61,129.28,114.82,129.31Z" fill="#4d5155" />
  <path d="M118.5,140.39c-.7.58-3.64,1.76-4.31,1.62,0,.4-.55,4.77-.55,4.77s5.56.23,6.34-.92A41.92,41.92,0,0,0,118.5,140.39Z" fill="#4d5155" />
  <path d="M117.62,151.68c-2.66,0-4.86-.42-4.8-.86s-.57,3.74-.57,3.74-1.27,1.7,2.65,2C116.25,155.29,117.62,151.68,117.62,151.68Z" fill="#4d5155" />
  <path d="M92.67,158.14l.17,0h0l.49-.07h.09l.18,0h0l.17,0h0a2,2,0,0,0,.39-.13.81.81,0,0,0,.43-.46.64.64,0,0,0-.27-.86.82.82,0,0,0,0-.31.79.79,0,0,0-.55-.64l-.2,0a1,1,0,0,0-.75.41,2.32,2.32,0,0,1-.71.57l-.36.17h0l-.26.12-.75.33c.14-2.14,1.09-4,.08-5.34s-2.86-1.73-4.64-1.77h-.42a8.68,8.68,0,0,0-2.63.44l-.09,0a3.85,3.85,0,0,0-1.7,1.22c-.83,1.1-.21,2.44.14,4l0,.18a7.8,7.8,0,0,1,.15,1.17v.28a2.38,2.38,0,0,0,.28,1.17,16.26,16.26,0,0,0-2.36-.87c-1-.25-1.76-.09-1.81-.9a.45.45,0,0,1,.34-.36.6.6,0,0,0,.25.32.72.72,0,0,1,0-1,.89.89,0,0,1,.22-.16c.62-.12.59.5,1.45,1,.5.26,1,.54,1.67.83h0v-.25c-.58-.27-1.11-.54-1.54-.78a1.24,1.24,0,0,1-.27-.17l-.08-.06a2.26,2.26,0,0,1-.34-.35,1,1,0,0,0-.73-.45h-.21a.8.8,0,0,0-.57.63,1,1,0,0,0,0,.3.68.68,0,0,0-.36.55.89.89,0,0,0,.49.78,2.89,2.89,0,0,0,.86.23,6.1,6.1,0,0,1,.68.12,21.13,21.13,0,0,1,2.65,1h0a4.78,4.78,0,0,0,.86.88l0,0,.15.13.09.09-.06,0-.41.15h0a17.75,17.75,0,0,1-2.47.69A10,10,0,0,1,79,161a3.46,3.46,0,0,0-1.06.17.86.86,0,0,0-.53.81,1,1,0,0,0,.22.7A.82.82,0,0,0,78,163a1.09,1.09,0,0,0,0,.36.79.79,0,0,0,.46.6,1.12,1.12,0,0,0,.44.09.7.7,0,0,0,.29,0l.18-.08a3.23,3.23,0,0,0,.49-.41,5,5,0,0,1,1.15-.9,14,14,0,0,1,2-.92l.5-.2.21-.07h0l.18-.07h0a3.43,3.43,0,0,0,.31.28,3,3,0,0,0,1.74.46,2.59,2.59,0,0,0,2-.63h0c.58.24,1.17.5,1.7.74.25.11.88.45.88.45l.28.17a5.27,5.27,0,0,1,1.11.94c.3.32.55.58,1,.58a1.06,1.06,0,0,0,.43-.08.74.74,0,0,0,.42-.36,1.26,1.26,0,0,0,.1-.33v-.25h0a.77.77,0,0,0,.35-.22.94.94,0,0,0,.25-.68.86.86,0,0,0-.49-.83,3.39,3.39,0,0,0-1-.22h-.24l-.37,0h-.13c-.19,0-.38-.06-.59-.11a15.73,15.73,0,0,1-1.61-.5l-.38-.14-.88-.34h0a.39.39,0,0,1,.08-.1,4.06,4.06,0,0,1,.36-.26c.18-.13.66-.52.66-.52a2.43,2.43,0,0,0,.3-.34h0l.5-.19h0l.85-.29h0A4.26,4.26,0,0,1,92.67,158.14Zm-8.9,3h0l-.3.11-.26.09-.21.08h0c-.59.23-1.15.46-1.64.71l-.08,0-.33.18c-1.42.81-1.49,1.67-2.33,1.33-.5-.2-.38-1-.07-1.28a.78.78,0,0,0-.26.34.64.64,0,0,1-.59-.68v0c.08-.93,1-.61,2.58-.88h.14a21.18,21.18,0,0,0,3.1-.92h0v.05c.14.23.22.53.38.82h0Zm2.33.52,0-.06,0,.06Zm3.56-1,.27.1h0l.11,0h0l.22.07a10.61,10.61,0,0,0,1.36.4,6,6,0,0,0,.77.14l.22,0,.49.05h0c.75.09,1.16.17,1.19.79a.65.65,0,0,1-.6.68h0a.73.73,0,0,0-.25-.35,1,1,0,0,1,.18,1h0a.47.47,0,0,1-.29.28c-.88.32-.89-.54-2.28-1.41l-.32-.19c-.23-.13-1-.5-1-.5-.49-.23-1-.45-1.54-.66a6.9,6.9,0,0,0,.45-.85Zm.1-1.57Zm.73-1.88v.49a1.63,1.63,0,0,1-.27.93,1.44,1.44,0,0,1-.49.49c-.45.28-1,.38-1.15.55a1.46,1.46,0,0,0-.17.24c0,.08-.07.15-.1.23a1.63,1.63,0,0,1-.25.47,1.19,1.19,0,0,1,0,.46.33.33,0,0,1-.17.16h-.12a.58.58,0,0,1,0-.29v0h0a1.22,1.22,0,0,1,0,.27c0,.21-.27.4-.29-.12V161h-.06v0c0,.25.08.5-.17.54s-.2-.18-.18-.52h-.15c0,.28.14.61-.24.61l-.15,0c-.14-.05-.13-.27-.13-.27a1,1,0,0,1,0-.29h-.15c0,.24.1.49-.15.57h-.1c-.35,0-.28-.24-.25-.61h-.11c0,.26,0,.56-.18.5s-.19-.23-.17-.56h0c0,.22,0,.41-.15.37s-.16-.14-.15-.36v-.1h0v.12c0,.34-.19.15-.28.1a.32.32,0,0,1-.13-.22v-.24a1.39,1.39,0,0,1-.23-.31h0l-.15-.32a1.64,1.64,0,0,0-.14-.22l0,0c-.16-.18-.61-.34-1-.64a1.9,1.9,0,0,1-.49-.49,1.75,1.75,0,0,1-.3-1.06V157a5.45,5.45,0,0,1,.3-1.12h0a.47.47,0,0,1,.06-.15l0-.07h0a3.49,3.49,0,0,0,.43-2.5l-.14-.17c-.08.18-.22.92-.49,1.84v.1c-.07.24-.14.49-.22.74a.06.06,0,0,1,0,.06L82,156l0,.13a.25.25,0,0,0,0-.16l-.06-.3c-.33-1.31-.76-2.47,0-3.43a4.38,4.38,0,0,1,1-.93s.53-.34.66-.4a6.11,6.11,0,0,1,5.23-.17.09.09,0,0,1,.1.05,4.81,4.81,0,0,1,1.92,1.51,3.84,3.84,0,0,1,.22.39l0,.13a6.87,6.87,0,0,1-.19,3.32,1.09,1.09,0,0,0-.07-.3c-.26-1-.42-1.88-.5-2.37l0-.16c0-.17-.07-.25-.09-.21a1,1,0,0,0-.1.17c0,.13-.08.27-.11.4a4.16,4.16,0,0,0,.43,2.14,4.48,4.48,0,0,1,.34,1.34.57.57,0,0,1-.13.08Zm.42,1.15-.09,0-.33.11a2.41,2.41,0,0,0,.25-1.08v-.07h0l.64-.27.32-.15.54-.26c.89-.44.88-1.07,1.48-.92a.72.72,0,0,1,.31,1,.68.68,0,0,1-.17.21.61.61,0,0,0,.26-.31.48.48,0,0,1,.33.37c0,.46-.33.6-.74.68l-.3,0a4.29,4.29,0,0,0-.59.07h0l-.21,0a12.58,12.58,0,0,0-1.71.54Z" fill="#4d5155" />
  <path d="M86.91,159.34l-.07-.35c-.11-.6-.49-1.11-.67-1.12s-.5.39-.67.87c0,.07,0,.15,0,.23v0a5.09,5.09,0,0,0-.13,1c0,.23.07.2.18.08l.1-.11.05-.06h0v0h0l0-.06c.15-.19.31-.38.43-.38s.21.12.33.26l.1.13c.27.36.49.73.39-.21C86.94,159.55,86.92,159.45,86.91,159.34Z" fill="#4d5155" />
  <path d="M85.72,156.13c-.08-.46-.57-.46-1.94-.71h-.25l-.11,0-.12.05a1.62,1.62,0,0,0-.76,1.46h0a1.5,1.5,0,0,0,0,.29h0a.8.8,0,0,0,.05.21v0a.88.88,0,0,0,.19.34,1,1,0,0,0,.35.25,2.55,2.55,0,0,0,.74.13l.27,0h.06l.36-.09A1.67,1.67,0,0,0,85.72,156.13Z" fill="#4d5155" />
  <path d="M89.75,156.46h0a.83.83,0,0,0-.06-.21h0l0-.08a1.28,1.28,0,0,0-.11-.2h0a.94.94,0,0,0-.88-.46l-.44.06h0c-1,.14-1.41.17-1.49.57a1.68,1.68,0,0,0,1,2,2.29,2.29,0,0,0,1.16.12,1.4,1.4,0,0,0,.35-.1l0,0h0l.1-.06a.71.71,0,0,0,.13-.12l0,0a.89.89,0,0,0,.15-.27,1.87,1.87,0,0,0,.07-1.12Z" fill="#4d5155" />
  <ellipse cx="79.3" cy="88.37" rx="2.07" ry="1.13" fill="#fff" />
  <ellipse cx="92.37" cy="88.37" rx="2.07" ry="1.13" fill="#fff" />
  <path d="M71.89,85.78V83.31c0-8.21,6.26-14.86,14-14.86s14,6.65,14,14.86v2.08" fill="none" stroke="#4d5155" stroke-miterlimit="10" stroke-width="3.36" />
  <path d="M77.4,74.64H94.63a3.94,3.94,0,0,1,3.66,2.65l.28,7.5S101,82.56,99.87,80,95.24,68.23,86.44,68.45s-14.3,9-14.55,12.13,1.36,4.54,1.36,4.54l.38-7.45A4,4,0,0,1,77.4,74.64Z" fill="#4d5155" />
  <path d="M98.77,84.87a1.36,1.36,0,0,0-1.36,1.36V100a2.79,2.79,0,0,1-1.87,2.62l-8.59,3a2.85,2.85,0,0,1-1.87,0l-8.59-3A2.79,2.79,0,0,1,74.62,100V86.23a1.36,1.36,0,0,0-1.36-1.36h0a1.36,1.36,0,0,0-1.36,1.36v17.82a3.19,3.19,0,0,0,1.53,2.49l11.34,8.23a2.81,2.81,0,0,0,2.57,0l11.36-8.34a3.15,3.15,0,0,0,1.51-2.47V86.23a1.36,1.36,0,0,0-1.36-1.36Z" fill="#4d5155" />
  <path d="M81.51,99h8.64a2,2,0,0,1,2,2v6.63a0,0,0,0,1,0,0H79.53a0,0,0,0,1,0,0V101A2,2,0,0,1,81.51,99Z" fill="none" stroke="#4d5155" stroke-linecap="round" stroke-linejoin="round" stroke-width="2.97" />
</svg>